<?xml version="1.0" encoding="utf-8"?>
<!-- Generator: Adobe Illustrator 22.0.1, SVG Export Plug-In . SVG Version: 6.00 Build 0)  -->
<svg version="1.1" id="Capa_1" xmlns="http://www.w3.org/2000/svg" xmlns:xlink="http://www.w3.org/1999/xlink" x="0px" y="0px"
	 viewBox="0 0 480 48.6" style="enable-background:new 0 0 480 48.6;" xml:space="preserve">
<style type="text/css">
	.st0{fill:#1E7B35;}
</style>
<g>
	<g>
		<path class="st0" d="M434.99,18.04c-9.57,7.65-17.82,14.25-35.02,14.25s-25.46-6.6-35.02-14.25
			c-10.41-8.32-22.2-17.75-45.02-17.75c-22.8,0-34.58,9.43-44.99,17.75c-9.55,7.65-17.8,14.25-34.99,14.25s-25.45-6.6-35.01-14.25
			c-10.4-8.32-22.19-17.75-45-17.75s-34.59,9.43-44.99,17.76c-9.55,7.64-17.8,14.24-34.98,14.24s-25.43-6.6-34.98-14.25
			C34.58,9.72,22.8,0.29,0,0.29v16c17.18,0,25.42,6.6,34.98,14.24c10.4,8.33,22.18,17.76,44.98,17.76s34.58-9.43,44.99-17.75
			c9.54-7.65,17.79-14.25,34.98-14.25s25.45,6.6,35.01,14.25c10.4,8.32,22.19,17.75,45,17.75s34.59-9.43,44.99-17.76
			c9.55-7.64,17.8-14.24,34.99-14.24c17.2,0,25.46,6.6,35.02,14.25c10.4,8.32,22.2,17.75,45.02,17.75s34.61-9.43,45.02-17.75
			c9.56-7.65,17.82-14.25,35.02-14.25v-16C457.18,0.29,445.39,9.72,434.99,18.04z"/>
	</g>
</g>
</svg>
