<?xml version="1.0" encoding="utf-8"?>
<!-- Generator: Adobe Illustrator 22.0.1, SVG Export Plug-In . SVG Version: 6.00 Build 0)  -->
<svg version="1.1" id="Capa_1" xmlns="http://www.w3.org/2000/svg" xmlns:xlink="http://www.w3.org/1999/xlink" x="0px" y="0px"
	 viewBox="0 0 25.63 25.63" style="enable-background:new 0 0 25.63 25.63;" xml:space="preserve">
<style type="text/css">
	.st0{fill:#E1150A;}
</style>
<g>
	<path class="st0" d="M22.08,17.83c-1.55-1.32-3.12-2.13-4.65-0.8l-0.91,0.8c-0.67,0.58-1.91,3.29-6.71-2.23
		c-4.8-5.52-1.94-6.38-1.27-6.95l0.92-0.8c1.52-1.32,0.95-2.99-0.15-4.71L8.64,2.1c-1.1-1.71-2.3-2.84-3.83-1.52L3.99,1.3
		C3.31,1.79,1.43,3.39,0.97,6.42c-0.55,3.64,1.18,7.8,5.16,12.38c3.97,4.57,7.86,6.87,11.54,6.83c3.06-0.03,4.91-1.67,5.49-2.27
		l0.83-0.72c1.52-1.32,0.58-2.67-0.97-3.99L22.08,17.83z"/>
</g>
</svg>
