<?xml version="1.0" encoding="utf-8"?>
<!-- Generator: Adobe Illustrator 22.0.1, SVG Export Plug-In . SVG Version: 6.00 Build 0)  -->
<svg version="1.1" id="Layer_1" xmlns="http://www.w3.org/2000/svg" xmlns:xlink="http://www.w3.org/1999/xlink" x="0px" y="0px"
	 viewBox="0 0 512 512" style="enable-background:new 0 0 512 512;" xml:space="preserve">
<style type="text/css">
	.st0{fill:#E1150A;}
</style>
<path class="st0" d="M259,512c74.91,0,165-148.41,165-241c0-120-111.45-120-165-120S93,151,93,271C93,363.59,184.09,512,259,512z
	 M334,226c0-8.29,6.71-15,15-15s15,6.71,15,15v30c0,8.29-6.71,15-15,15s-15-6.71-15-15V226z M289,316c0-8.29,6.71-15,15-15
	s15,6.71,15,15v27.61c0.75,8.8-5,17.24-14.75,17.24c-8.76,0-15.25-7.23-15.25-14.85V316z M244,226c0-8.29,6.71-15,15-15
	c8.29,0,15,6.71,15,15v30c0,8.29-6.71,15-15,15s-15-6.71-15-15V226z M244,406c0-8.29,6.71-15,15-15c8.29,0,15,6.71,15,15v30
	c0,8.29-6.71,15-15,15s-15-6.71-15-15V406z M199,316c0-8.29,6.71-15,15-15s15,6.71,15,15v30c0,8.29-6.71,15-15,15s-15-6.71-15-15
	V316z M184,256c0,8.29-6.71,15-15,15s-15-6.71-15-15v-30c0-8.29,6.71-15,15-15s15,6.71,15,15V256z"/>
<path class="st0" d="M270.94,5.9c-5.95-7.82-17.8-7.91-23.85,0C238.84,16.71,229,34.59,229,53.54v15.78
	c-8.86-5.15-19.02-8.32-30-8.32h-15c-8.29,0-15,6.71-15,15c0,24.85,20.15,45,45,45h90c24.85,0,45-20.15,45-45c0-8.29-6.71-15-15-15
	h-15c-10.98,0-21.14,3.17-30,8.32V53.54C289,34.57,279.19,16.71,270.94,5.9z"/>
</svg>
